<svg width="32" height="10" viewBox="0 0 32 10" fill="none" xmlns="http://www.w3.org/2000/svg">
<path d="M6.492 0.599999C6.644 0.751999 6.72 0.947999 6.72 1.188C6.72 1.388 6.676 1.592 6.588 1.8L3.516 9L3.384 9.06L0.36 0.599999H1.38L3.888 7.704L6.444 1.8C6.532 1.6 6.576 1.392 6.576 1.176C6.576 0.96 6.516 0.792 6.396 0.672L6.492 0.599999ZM9.80447 9.048C8.96447 9.048 8.28047 8.808 7.75247 8.328C7.22447 7.848 6.96047 7.108 6.96047 6.108C6.96047 5.108 7.23247 4.332 7.77647 3.78C8.32847 3.228 9.02447 2.952 9.86447 2.952C10.7125 2.952 11.4005 3.192 11.9285 3.672C12.4565 4.152 12.7205 4.892 12.7205 5.892C12.7205 6.892 12.4445 7.668 11.8925 8.22C11.3485 8.772 10.6525 9.048 9.80447 9.048ZM9.88847 3.048C9.28047 3.048 8.77647 3.32 8.37647 3.864C7.97647 4.4 7.77647 5.152 7.77647 6.12C7.77647 7.08 7.96047 7.792 8.32847 8.256C8.69647 8.72 9.18447 8.952 9.79247 8.952C10.4005 8.952 10.9045 8.684 11.3045 8.148C11.7045 7.604 11.9045 6.852 11.9045 5.892C11.9045 4.924 11.7205 4.208 11.3525 3.744C10.9845 3.28 10.4965 3.048 9.88847 3.048ZM15.1993 9C14.4953 9 14.0513 8.816 13.8673 8.448C13.8273 8.368 13.8073 8.296 13.8073 8.232V0.0119998H14.6473V8.148C14.6473 8.38 14.6913 8.56 14.7793 8.688C14.8753 8.808 14.9713 8.872 15.0673 8.88L15.1993 8.904H15.5713V9H15.1993ZM16.4161 3.096V3H16.6681V1.8H17.5081V3H19.3441V3.096H17.5081V7.464C17.5081 7.984 17.5641 8.36 17.6761 8.592C17.7961 8.824 18.0401 8.94 18.4081 8.94C18.7841 8.94 19.1641 8.864 19.5481 8.712L19.5841 8.808C19.1841 8.96 18.7241 9.036 18.2041 9.036C17.6921 9.036 17.3081 8.932 17.0521 8.724C16.7961 8.508 16.6681 8.084 16.6681 7.452V3.096H16.4161ZM20.9366 6.072C20.9366 7.064 21.1086 7.792 21.4526 8.256C21.8046 8.72 22.2646 8.952 22.8326 8.952C23.6326 8.952 24.3446 8.832 24.9686 8.592L25.0046 8.676C24.3646 8.924 23.6406 9.048 22.8326 9.048C22.0326 9.048 21.3806 8.808 20.8766 8.328C20.3726 7.848 20.1206 7.108 20.1206 6.108C20.1206 5.108 20.3846 4.332 20.9126 3.78C21.4406 3.228 22.1126 2.952 22.9286 2.952C23.5846 2.952 24.1366 3.148 24.5846 3.54C25.0326 3.932 25.2566 4.512 25.2566 5.28C25.2566 5.32 25.2566 5.36 25.2566 5.4H20.9726C20.9486 5.616 20.9366 5.84 20.9366 6.072ZM24.4406 5.304C24.4326 4.536 24.2846 3.968 23.9966 3.6C23.7086 3.232 23.3366 3.048 22.8806 3.048C22.4246 3.048 22.0166 3.248 21.6566 3.648C21.3046 4.048 21.0806 4.6 20.9846 5.304H24.4406ZM25.8145 9V8.904C25.9825 8.904 26.1505 8.84 26.3185 8.712C26.4945 8.584 26.6265 8.456 26.7145 8.328L28.2145 6.12L26.0785 3H26.9545L28.7905 5.676L30.5665 3H30.6865L28.8385 5.76L31.0705 9H30.1945L28.2625 6.192L26.9665 8.136C26.9505 8.16 26.9305 8.192 26.9065 8.232C26.8825 8.272 26.8305 8.34 26.7505 8.436C26.6705 8.532 26.5865 8.616 26.4985 8.688C26.2585 8.896 26.0305 9 25.8145 9Z" fill="white"/>
</svg>
